<svg width="1291" height="659" viewBox="0 0 1291 659" fill="none" xmlns="http://www.w3.org/2000/svg">
<path d="M26 633.5L169.849 113.178C178.118 83.2684 220.801 84.059 227.956 114.254L351 633.5" stroke="#4158A5" stroke-width="50" stroke-linecap="round"/>
<line x1="512" y1="296" x2="512" y2="633" stroke="#4158A5" stroke-width="50" stroke-linecap="round"/>
<path d="M651 634C651 338.038 802.333 268.72 878 271.056" stroke="#4158A5" stroke-width="50" stroke-linecap="round"/>
<path d="M1242.15 533.144C1254.26 540.555 1258.19 556.519 1249.16 567.465C1225.99 595.544 1194.83 616.237 1159.53 626.596C1115.96 639.381 1069.19 635.512 1028.32 615.741C987.442 595.97 955.376 561.71 938.351 519.617C921.326 477.524 920.557 430.605 936.195 387.976C951.832 345.348 982.759 310.056 1022.96 288.957C1063.17 267.858 1109.78 262.46 1153.75 273.811C1197.71 285.162 1235.89 312.451 1260.85 350.377C1281.08 381.107 1291.47 417.041 1290.98 453.439C1290.79 467.63 1277.47 477.264 1263.45 475.091V475.091C1249.42 472.917 1240.08 459.719 1239.49 445.539C1238.51 421.853 1231.14 398.702 1217.93 378.635C1199.97 351.361 1172.52 331.735 1140.9 323.571C1109.28 315.408 1075.76 319.29 1046.85 334.464C1017.93 349.638 995.689 375.019 984.443 405.676C973.198 436.332 973.75 470.075 985.994 500.347C998.238 530.619 1021.3 555.258 1050.69 569.476C1080.09 583.695 1113.72 586.477 1145.06 577.283C1168.11 570.518 1188.7 557.627 1204.77 540.196C1214.39 529.761 1230.05 525.733 1242.15 533.144V533.144Z" fill="#4158A5"/>
<rect x="1068" y="423" width="223" height="56" rx="28" fill="#4158A5"/>
<circle cx="510.5" cy="208.5" r="32.5" fill="#4158A5"/>
</svg>
